<?xml version="1.0" encoding="UTF-8" standalone="no"?>
<!-- Created with Inkscape (http://www.inkscape.org/) -->
<svg
    xmlns:inkscape="http://www.inkscape.org/namespaces/inkscape"
    xmlns:rdf="http://www.w3.org/1999/02/22-rdf-syntax-ns#"
    xmlns="http://www.w3.org/2000/svg"
    xmlns:sodipodi="http://sodipodi.sourceforge.net/DTD/sodipodi-0.dtd"
    xmlns:cc="http://creativecommons.org/ns#"
    xmlns:xlink="http://www.w3.org/1999/xlink"
    xmlns:dc="http://purl.org/dc/elements/1.1/"
    xmlns:svg="http://www.w3.org/2000/svg"
    xmlns:ns1="http://sozi.baierouge.fr"
    id="svg5416"
    sodipodi:docname="golden_clock.svg"
    viewBox="0 0 200.39 199.7"
    sodipodi:version="0.32"
    version="1.0"
    inkscape:output_extension="org.inkscape.output.svg.inkscape"
    inkscape:version="0.48.4 r9939">
  <defs id="defs5418">
    <linearGradient id="linearGradient3095">
      <stop
          id="stop3097"
          style="stop-color:#ffffff;stop-opacity:.73301"
          offset="0"/>
      <stop
          id="stop3099"
          style="stop-color:#ffffff;stop-opacity:0"
          offset="1"/>
    </linearGradient>
    <radialGradient
        id="radialGradient3075"
        gradientUnits="userSpaceOnUse"
        cy="19.009"
        cx="31.113"
        r="8.6621"
        inkscape:collect="always">
      <stop
          id="stop3818"
          style="stop-color:#000000"
          offset="0"/>
      <stop
          id="stop3820"
          style="stop-color:#000000;stop-opacity:0"
          offset="1"/>
    </radialGradient>
    <radialGradient
        id="radialGradient3077"
        spreadMethod="reflect"
        gradientUnits="userSpaceOnUse"
        cy="16.911"
        cx="16.25"
        gradientTransform="matrix(1.2733 -.082139 .073475 1.139 -5.6839 -1.0157)"
        r="15.552"
        inkscape:collect="always">
      <stop
          id="stop42176"
          style="stop-color:#8c6724"
          offset="0"
      />
      <stop
          id="stop42178"
          style="stop-color:#cfb87c"
          offset="1"
      />
    </radialGradient
    >
    <radialGradient
        id="radialGradient3079"
        gradientUnits="userSpaceOnUse"
        cy="24.993"
        cx="25"
        gradientTransform="matrix(3.7297 0 0 3.7298 3.3459 -130.45)"
        r="24.113"
        inkscape:collect="always"
      >
      <stop
          id="stop3036"
          style="stop-color:#efbe2e"
          offset="0"
      />
      <stop
          id="stop3038"
          style="stop-color:#b67415"
          offset=".83685"
      />
      <stop
          id="stop3040"
          style="stop-color:#e7c040"
          offset=".94234"
      />
      <stop
          id="stop3042"
          style="stop-color:#af781f"
          offset="1"
      />
    </radialGradient
    >
    <linearGradient
        id="linearGradient3081"
        y2="31.821"
        xlink:href="#linearGradient3095"
        gradientUnits="userSpaceOnUse"
        x2="16.211"
        y1="-8.2968"
        x1="16.25"
        inkscape:collect="always"
    />
  </defs
  >
 
  <g
      id="layer1"
      inkscape:label="Layer 1"
      inkscape:groupmode="layer"
      transform="translate(3.6405 132.17)"
    >
    <g
        id="g3064"
        transform="translate(3.4697e-7 -.0000034843)"
      >
      <path
          id="path4415"
          sodipodi:rx="8.6620579"
          sodipodi:ry="8.6620579"
          style="fill-rule:evenodd;fill:url(#radialGradient3075)"
          sodipodi:type="arc"
          d="m39.775 19.009c0 4.7839-3.8781 8.6621-8.6621 8.6621-4.7839 0-8.6621-3.8781-8.6621-8.6621 0-4.7839 3.8781-8.6621 8.6621-8.6621 4.7839 0 8.6621 3.8781 8.6621 8.6621z"
          transform="matrix(10.99 0 0 2.6042 -245.38 -9.5321)"
          sodipodi:cy="19.008621"
          sodipodi:cx="31.112698"
      />
      <path
          id="path4419"
          sodipodi:rx="14.910714"
          sodipodi:ry="14.910714"
          style="fill-rule:evenodd;fill:url(#radialGradient3077)"
          sodipodi:type="arc"
          d="m31.161 16.911c0 8.235-6.6758 14.911-14.911 14.911-8.235 0-14.911-6.6758-14.911-14.911 0-8.235 6.6758-14.911 14.911-14.911 8.235 0 14.911 6.6758 14.911 14.911z"
          transform="matrix(5.2223 0 0 5.2223 11.727 -125.55)"
          sodipodi:cy="16.910715"
          sodipodi:cx="16.25"
      />
      <path
          id="path4417"
          d="m96.589-127.17c-49.548 0-89.936 40.388-89.936 89.936s40.388 89.936 89.936 89.936 89.936-40.388 89.936-89.936-40.388-89.936-89.936-89.936zm0 12.948c42.622 0 77.163 34.366 77.163 76.988 0.00001 42.622-34.541 77.163-77.163 77.163-42.622-0.000003-77.163-34.541-77.163-77.163s34.541-76.988 77.163-76.988z"
          style="fill-rule:evenodd;fill:url(#radialGradient3079)"
          inkscape:connector-curvature="0"
      />
      <path
          id="text2401"
          style="block-progression:tb;text-indent:0;text-transform:none;fill:#593d00"
          inkscape:connector-curvature="0"
          d="m87.266-95.629 1.4274 0.23218v0.45575h-3.7664v-0.45575l1.2727-0.23218 3.9212-5.211-3.345-4.9531-1.2985-0.22358v-0.45575h4.7553v0.45575l-1.4618 0.22358 2.3905 3.56 2.6743-3.56-1.4274-0.22358v-0.45575h3.775v0.45575l-1.2727 0.22358-3.2418 4.3167 3.9642 5.8474 1.3071 0.23218v0.45575h-4.7553v-0.45575l1.4618-0.23218-3.0269-4.4715-3.3536 4.4715m13.492 0 1.479 0.23218v0.45575h-4.6091v-0.45575l1.479-0.23218v-10.164l-1.479-0.22358v-0.45575h4.6091v0.45575l-1.479 0.22358v10.164m5.7442 0 1.479 0.23218v0.45575h-4.6091v-0.45575l1.479-0.23218v-10.164l-1.479-0.22358v-0.45575h4.6091v0.45575l-1.479 0.22358v10.164m20.038 8.2314 1.1648 0.94059-0.22786 0.39469-3.9916-2.3046 0.22786-0.39469 1.397 0.53846 5.082-8.8024-1.1691-0.93314 0.2279-0.39469 3.9916 2.3046-0.22789 0.39469-1.3927-0.5459-5.082 8.8024m19.699 19.25 0.53845 1.397-0.39469 0.22786-2.3046-3.9916 0.39469-0.22786 0.94059 1.1648 8.8024-5.0821-0.5459-1.3927 0.39469-0.22786 2.3046 3.9916-0.39469 0.22789-0.93314-1.1691-8.8024 5.0821m2.8721 4.9746 0.53844 1.397-0.39469 0.22786-2.3045-3.9916 0.39469-0.22786 0.94058 1.1648 8.8024-5.0821-0.5459-1.3927 0.39469-0.22786 2.3045 3.9916-0.39469 0.22786-0.93313-1.1691-8.8024 5.0821m5.9435 21.123-0.23218 1.479h-0.45575v-4.6091h0.45575l0.23218 1.479h10.164l0.22358-1.479h0.45575v4.6091h-0.45575l-0.22358-1.479h-10.164m0 5.7442-0.23218 1.479h-0.45575v-4.6091h0.45575l0.23218 1.479h10.164l0.22358-1.479h0.45575v4.6091h-0.45575l-0.22358-1.479h-10.164m0 5.7442-0.23218 1.479h-0.45575v-4.6091h0.45575l0.23218 1.479h10.164l0.22358-1.479h0.45575v4.6091h-0.45575l-0.22358-1.479h-10.164m-5.1043 17.964-0.94058 1.1648-0.39469-0.22786 2.3045-3.9916 0.39469 0.22789-0.53845 1.397 8.8024 5.0821 0.93315-1.1691 0.39469 0.22789-2.3046 3.9916-0.39469-0.22789 0.54589-1.3927-8.8024-5.0821m2.1417 17.977-0.39469-0.22789 0.4384-1.2065-7.3115-9.5733 0.21929-0.3798 11.972 1.5007 0.84285-1.0127 0.39469 0.22789-2.3303 4.0363-0.39469-0.22789 0.58029-1.4523-9.0958-1.2202 5.6089 7.2597 0.95034-1.1989 0.3947 0.22789-1.8746 3.2469m-25.831 20.385-0.22786-0.39469 0.98293-0.82566-1.5454-11.946 0.3798-0.21929 9.6179 7.2857 1.2363-0.4556 0.22786 0.39469-4.0363 2.3303-0.22789-0.39469 1.2287-0.96754-7.2671-5.6046 1.2276 9.0915 1.4224-0.5631 0.22787 0.3947-3.2469 1.8746m-32.755 6.8278v-0.45575l1.2641-0.22357 4.6349-11.119h0.43855l4.6865 11.119 1.2985 0.22357v0.45575h-4.6607v-0.45575l1.5478-0.22357-3.4912-8.4873-3.4826 8.4873 1.5134 0.22357v0.45575h-3.7492m-3.732-10.843-1.479-0.23218v-0.45575h4.6091v0.45575l-1.479 0.23218v10.164l1.479 0.22357v0.45575h-4.6091v-0.45575l1.479-0.22357v-10.164m-28.298 1.3989 0.22786-0.39469 1.2065 0.4384 9.5732-7.3115 0.3798 0.21929-1.5007 11.972 1.0127 0.84286-0.22786 0.39469-4.0363-2.3304 0.22786-0.39469 1.4522 0.5803 1.2202-9.0958-7.2597 5.6089 1.1989 0.95034-0.22786 0.39469-3.2469-1.8746m2.1897-11.257-1.1648-0.94059 0.22786-0.39469 3.9916 2.3046-0.22786 0.39469-1.397-0.53845-5.082 8.8024 1.1691 0.93314-0.22786 0.39469-3.9916-2.3046 0.22786-0.39469 1.3927 0.5459 5.082-8.8024m-4.9746-2.8721-1.1648-0.94059 0.22786-0.3947 3.9916 2.3046-0.22786 0.39469-1.397-0.53845-5.082 8.8024 1.1691 0.93315-0.22786 0.39469-3.9916-2.3046 0.22786-0.39469 1.3927 0.5459 5.082-8.8024m-21.163-9.0377 0.39469-0.22789 0.82566 0.98293 11.946-1.5454 0.21929 0.3798-7.2857 9.6179 0.4556 1.2363-0.39469 0.22786-2.3303-4.0363 0.39469-0.22786 0.96754 1.2287 5.6046-7.2671-9.0915 1.2276 0.56309 1.4225-0.39469 0.22786-1.8746-3.2469m7.5247-8.6537-0.53845-1.397 0.39469-0.22786 2.3045 3.9916-0.39469 0.22789-0.94058-1.1648-8.8023 5.0821 0.54589 1.3927-0.39469 0.22786-2.3045-3.9916 0.39469-0.22786 0.93314 1.1691 8.8024-5.0821m-2.8721-4.9746-0.53845-1.397 0.39469-0.22786 2.3045 3.9916-0.39469 0.22789-0.94059-1.1648-8.8024 5.0821 0.5459 1.3927-0.39469 0.22789-2.3045-3.9916 0.39469-0.22789 0.93314 1.1691 8.8024-5.0821m-2.8721-4.9746-0.53845-1.397 0.39469-0.22786 2.3045 3.9916-0.39469 0.22786-0.94058-1.1648-8.8024 5.0821 0.5459 1.3927-0.39469 0.22789-2.3045-3.9916 0.39469-0.22786 0.93314 1.1691 8.8023-5.0821m-1.6337-12.913 0.23218-1.479h0.45575v4.6091h-0.45575l-0.23218-1.479h-10.164l-0.22357 1.479h-0.45575v-4.6091h0.45575l0.22357 1.479h10.164m0-4.7037 0.23218-1.4274h0.45575v3.7664h-0.45575l-0.23218-1.2727-5.211-3.9212-4.9531 3.345-0.22357 1.2985h-0.45575v-4.7553h0.45575l0.22357 1.4618 3.56-2.3905-3.56-2.6743-0.22357 1.4274h-0.45575v-3.775h0.45575l0.22357 1.2727 4.3167 3.2419 5.8474-3.9642 0.23218-1.3071h0.45575v4.7553h-0.45575l-0.23218-1.4618-4.4715 3.0269 4.4715 3.3536m5.9659-27.261 0.91479-1.1201 0.39469 0.22786-1.8832 3.2618-0.39469-0.22786 0.43526-1.2182-2.5523-6.0014-5.962 0.42036-0.84285 1.0127-0.39469-0.22786 2.3776-4.1182 0.39469 0.22786-0.5373 1.3778 4.2783-0.29025-1.7459-4.096-0.90735 1.1244-0.39469-0.22786 1.8875-3.2692 0.39469 0.22786-0.44271 1.2139 2.1175 4.9659 7.046-0.50939 0.85459-1.0159 0.39469 0.22786-2.3776 4.1182-0.39469-0.22786 0.52985-1.3821-5.3859 0.38559 2.1956 5.1401m17.824-21.571 1.3523-0.51265 0.22786 0.39469-3.2618 1.8832-0.22786-0.39469 0.98607-0.8374 0.79032-6.4735-5.3734-2.617-1.2363 0.4556-0.22786-0.39469 4.1182-2.3776 0.22786 0.39469-1.1542 0.92454 3.8503 1.8878 0.53601-4.4202-1.348 0.5201-0.22786-0.3947 3.2692-1.8875 0.22786 0.39469-0.99037 0.82996-0.64916 5.3593 6.3567 3.0819 1.248-0.45246 0.22786 0.39469-4.1182 2.3776-0.22786-0.39469 1.1499-0.93199-4.8571-2.359-0.66858 5.5493m11.684-6.746 1.397-0.53845 0.22786 0.39469-3.9916 2.3046-0.22786-0.39469 1.1648-0.94059-5.082-8.8024-1.3927 0.5459-0.22786-0.39469 3.9916-2.3046 0.22786 0.3947-1.1691 0.93314 5.082 8.8024"
      />
      <path
          id="path3091"
          sodipodi:rx="14.910714"
          sodipodi:ry="14.910714"
          style="fill-rule:evenodd;fill:url(#linearGradient3081)"
          sodipodi:type="arc"
          d="m31.161 16.911c0 8.235-6.6758 14.911-14.911 14.911-8.235 0-14.911-6.6758-14.911-14.911 0-8.235 6.6758-14.911 14.911-14.911 8.235 0 14.911 6.6758 14.911 14.911z"
          transform="matrix(4.1261 0 0 3.0876 29.541 -119.16)"
          sodipodi:cy="16.910715"
          sodipodi:cx="16.25"
      />
      
    </g
    >
  </g
  >
  <metadata>
    <rdf:RDF>
      <cc:Work>
        <dc:format>image/svg+xml</dc:format>
        <dc:publisher>
          <cc:Agent rdf:about="http://openclipart.org/">
            <dc:title>Openclipart</dc:title>
          </cc:Agent>
        </dc:publisher>
        <dc:title>Golden clock</dc:title>
        <dc:date>2013-01-23T05:09:14</dc:date>
        <dc:source>Muhammad Imran Ali</dc:source>
      </cc:Work>
    </rdf:RDF>
  </metadata>
</svg>
